{"title":"Solace.2015.BRRip.720p.x264.AAC-PRiSTiNE [P2PDL]","uid":13196630,"size":694438989,"categoryP":"video","categoryS":"hd___movies","magnet":"?xt=urn:btih:f312f951b685bf2ee2ebb221da0689db53482b56&amp;dn=Solace.2015.BRRip.720p.x264.AAC-PRiSTiNE+%5BP2PDL%5D&amp;tr=udp%3A%2F%2Ftracker.leechers-paradise.org%3A6969&amp;tr=udp%3A%2F%2Fzer0day.ch%3A1337&amp;tr=udp%3A%2F%2Fopen.demonii.com%3A1337&amp;tr=udp%3A%2F%2Ftracker.coppersurfer.tk%3A6969&amp;tr=udp%3A%2F%2Fexodus.desync.com%3A6969","seeders":2,"leechers":0,"uploader":"VYTOP2PDL","files":7,"time":1452495770,"description":"____    ____ ____    ____ .___________.  ______   \r\n     /   /      /   / |           | /  __    \r\n    /   /      /   /  `---|  |----`|  |  |  | \r\n        /     _    _/       |  |     |  |  |  | \r\n       /        |  |         |  |     |  `--'  | \r\n    __/         |__|         |__|      ______/  \r\n                                                  \r\nPresenting Small Encodes with quality for years!\r\n                                                                                                   \r\n                                                                                                   \r\n\r\nSolace.2015.BRRip.720p.x264.AAC-PRiSTiNE\r\n\r\n\r\nGenre: Action, Adventure, Thriller \nhttp://www.imdb.com/title/tt1291570/\r\n\r\n\r\nFormat                                   : MPEG-4\r\nFile size                                : 650 MiB\r\nDuration                                 : 1h 41mn\r\nOverall bit rate                         : 897 Kbps\r\n\r\nVideo\r\nFormat                                   : AVC\r\nBit rate                                 : 817 Kbps\r\nWidth                                    : 1 280 pixels\r\nHeight                                   : 528 pixels\r\nDisplay aspect ratio                     : 2.40:1\r\nFrame rate mode                          : Constant\r\nFrame rate                               : 23.976 fps\r\nBit depth                                : 8 bits\r\nStream size                              : 589 MiB (91%)\r\nWriting library                          : x264\r\n\r\nAudio\r\nFormat                                   : AAC\r\nBit rate                                 : 80.0 Kbps\r\nChannel(s)                               : 2 channels\r\nChannel positions                        : Front: L R\r\nSampling rate                            : 48.0 KHz\r\nStream size                              : 57.9 MiB (9%)\r\nLanguage                                 : English\r\n\r\nSubtitle                                 : Yes (English)\r\n\r\nScreen Shots: (Click to view)\r\n \nhttp://ititli.com/aB \nhttp://ititli.com/aN \nhttp://ititli.com/aP \nhttp://ititli.com/af \nhttp://ititli.com/au \nhttp://ititli.com/av \nhttp://ititli.com/aR \nhttp://ititli.com/ay \nhttp://ititli.com/a3 \nhttp://ititli.com/aE \nhttp://ititli.com/aQ \nhttp://ititli.com/aS\r\n\r\n----------------------------------------------------------------------------------------------------\r\n\r\n\r\nEncoder Notes: Looking For Early Access To Anything You Can Provide WEBDL, DVDScr, DVDR, BluRay,\r\nDirect Audio, Music Releases and Seedboxes. If You Got anything to offer please contact us.\r\n\r\nSupport us by donating BC - 1FgwdzPsd1y25Gea8wP1qni35uGCtmkRCD\r\n\r\nSend some love!\r\nFind us and join us!\r\n\r\nTry all new image sharing/hosting service at:          \nhttp://ititli.com/","torrent":{"xt":"urn:btih:f312f951b685bf2ee2ebb221da0689db53482b56","amp;dn":"Solace.2015.BRRip.720p.x264.AAC-PRiSTiNE+%5BP2PDL%5D","amp;tr":["udp%3A%2F%2Ftracker.leechers-paradise.org%3A6969","udp%3A%2F%2Fzer0day.ch%3A1337","udp%3A%2F%2Fopen.demonii.com%3A1337","udp%3A%2F%2Ftracker.coppersurfer.tk%3A6969","udp%3A%2F%2Fexodus.desync.com%3A6969"],"infoHash":"f312f951b685bf2ee2ebb221da0689db53482b56","infoHashBuffer":{"type":"Buffer","data":[243,18,249,81,182,133,191,46,226,235,178,33,218,6,137,219,83,72,43,86]},"announce":[],"urlList":[]}}